<svg width="853" height="769" viewBox="0 0 853 769" fill="none" xmlns="http://www.w3.org/2000/svg">
<path d="M724.5 72.2399C788.271 122.078 811.89 207.515 831.966 294.986C850.861 382.457 865.032 471.962 834.328 558.416C804.804 645.887 729.223 731.323 633.567 758.785C536.729 785.23 419.815 752.682 311.168 711.998C203.701 671.314 104.502 623.51 51.3589 550.279C-1.78374 476.03 -10.0504 377.371 10.0257 283.798C30.1019 189.207 77.3398 99.7017 156.463 50.8807C235.587 3.07678 346.596 -3.02586 452.881 1.04256C559.167 6.12808 661.909 21.3847 724.5 72.2399Z" fill="url(#paint0_linear_63_1574)"/>
<defs>
<linearGradient id="paint0_linear_63_1574" x1="0" y1="768.353" x2="764.246" y2="-79.3346" gradientUnits="userSpaceOnUse">
<stop stop-color="#F87537"/>
<stop offset="1" stop-color="#FBA81F"/>
</linearGradient>
</defs>
</svg>
