<svg width="50" height="20" viewBox="0 0 162 158" fill="none" xmlns="http://www.w3.org/2000/svg">
<path d="M152.661 34.2146C143.54 21.3355 125.898 14.7144 107.74 8.67615C89.5545 2.85088 70.8252 -2.17862 51.6954 0.970081C32.3766 3.87768 12.413 15.1484 4.32587 31.6422C-3.57231 48.3771 0.622525 70.3633 6.74367 91.0833C12.8925 111.59 20.751 130.803 35.1025 142.412C49.6706 154.049 70.4875 158.266 90.8848 157.231C111.499 156.224 131.665 150.178 143.914 137.256C155.946 124.307 159.844 104.454 161.465 85.1715C162.87 65.8612 162.026 46.9089 152.661 34.2146Z" fill="url(#paint0_linear_63_1659)"/>
<defs>
<linearGradient id="paint0_linear_63_1659" x1="-3.73567" y1="268.665" x2="170.868" y2="125.264" gradientUnits="userSpaceOnUse">
<stop stop-color="#F87537"/>
<stop offset="1" stop-color="#FBA81F"/>
</linearGradient>
</defs>
</svg>
