<svg width="584" height="527" viewBox="0 0 584 527" fill="none" xmlns="http://www.w3.org/2000/svg">
<path d="M87.4708 49.4639C43.804 83.5889 27.631 142.089 13.8841 201.982C0.945784 261.875 -8.75791 323.16 12.2668 382.357C32.483 442.25 84.2362 500.75 149.736 519.553C216.045 537.66 296.101 515.375 370.496 487.518C444.083 459.66 512.009 426.928 548.398 376.785C584.787 325.946 590.448 258.392 576.701 194.321C562.954 129.553 530.608 68.2674 476.429 34.8389C422.25 2.10672 346.237 -2.07186 273.459 0.713857C200.681 4.196 130.329 14.6424 87.4708 49.4639Z" fill="url(#paint0_linear_63_1575)"/>
<defs>
<linearGradient id="paint0_linear_63_1575" x1="474.55" y1="171.362" x2="-48.7407" y2="-409.083" gradientUnits="userSpaceOnUse">
<stop stop-color="#F87537"/>
<stop offset="1" stop-color="#FBA81F"/>
</linearGradient>
</defs>
</svg>
