<svg width="915" height="541" viewBox="0 0 915 541" fill="none" xmlns="http://www.w3.org/2000/svg">
<path d="M869.129 42.3318C870.414 38.6397 866.933 34.0829 861.253 32.4518C856.926 31.2094 849.719 32.1714 848.72 35.9429C848.174 38.0049 850.961 44.0581 856.596 45.8224C862.232 47.5867 867.842 46.0239 869.129 42.3318Z" fill="white" fill-opacity="0.1"/>
<path d="M866.225 54.4204C863.058 54.1977 857.397 56.9419 857.425 60.1128C857.445 62.2977 861.313 65.8762 866.154 65.9035C870.994 65.9303 874.934 63.382 874.953 60.2111C874.973 57.0401 871.052 54.7606 866.225 54.4204Z" fill="white" fill-opacity="0.1"/>
<path d="M908.74 32.2605C903.88 29.6093 900.861 31.1954 897.862 32.5242C895.055 33.7671 891.89 33.9771 888.902 33.2021C883.612 31.8302 878.198 33.9012 875.259 38.1228C872.32 42.3443 872.44 47.878 875.851 51.9501C877.776 54.25 878.818 57.0915 878.714 60.0262C878.606 63.1644 878.254 66.419 882.736 69.6138C888.268 73.5569 896.286 71.7193 900.098 66.2428C901.172 64.6998 901.817 63.0069 902.06 61.2898C902.324 59.4309 903.011 57.6722 904.061 56.1448C905.13 54.6287 906.564 53.3378 908.265 52.3779C909.834 51.491 911.223 50.2634 912.297 48.7203C916.109 43.2449 914.74 35.5328 908.74 32.2605Z" fill="white" fill-opacity="0.1"/>
<path d="M876.965 31.0166C880.028 28.4316 879.315 22.9292 875.368 18.7253C871.424 14.5218 864.457 14.5006 862.677 15.7946C859.423 18.1608 861.353 24.814 864.274 28.0854C868.108 32.3809 873.9 33.6015 876.965 31.0166Z" fill="white" fill-opacity="0.1"/>
<path d="M896.591 28.9895C899.653 27.7132 900.557 23.2734 898.609 19.072C896.661 14.8711 891.661 12.9256 889.537 13.7761C886.456 15.0103 886.047 21.0261 887.521 23.693C889.765 27.7592 893.529 30.2657 896.591 28.9895Z" fill="white" fill-opacity="0.1"/>
<path d="M805.301 33.328C809.449 34.0798 813.891 30.1006 814.889 24.384C815.649 20.0297 813.65 13.1811 809.454 12.7184C807.161 12.4653 801.014 15.9711 799.866 21.6624C798.72 27.3532 801.152 32.5762 805.301 33.328Z" fill="white" fill-opacity="0.1"/>
<path d="M786.819 41.3593C790.237 40.9548 792.169 36.8546 791.89 32.1364C791.707 29.0411 787.995 23.927 784.583 24.378C782.233 24.6889 778.895 28.9121 779.512 33.601C780.13 38.2904 783.401 41.7638 786.819 41.3593Z" fill="white" fill-opacity="0.1"/>
<path d="M817.772 51.2549C818.543 45.95 815.589 40.9863 810.65 38.7052C805.711 36.4246 799.767 37.2796 795.837 41.125C793.618 43.2968 790.697 44.6834 787.521 44.9765C784.127 45.2899 780.574 45.3845 777.733 50.1498C774.225 56.0318 777.275 63.5474 783.683 66.5063C785.488 67.3401 787.397 67.738 789.28 67.7441C791.317 67.7502 793.303 68.181 795.088 68.994C796.864 69.8257 798.445 71.0422 799.707 72.5594C800.872 73.9602 802.38 75.1407 804.185 75.974C810.592 78.933 818.715 76.5769 821.438 70.333C823.644 65.2736 821.533 62.5638 819.7 59.8366C817.985 57.2862 817.337 54.2508 817.772 51.2549Z" fill="white" fill-opacity="0.1"/>
<path d="M831.56 36.2204C835.56 31.8398 834.653 25.0929 833.022 23.5433C830.039 20.7093 823.131 23.4663 819.997 26.7306C815.884 31.016 815.343 36.7873 818.536 39.4077C821.729 42.0281 827.561 40.601 831.56 36.2204Z" fill="white" fill-opacity="0.1"/>
<path d="M827.83 48.6432C823.752 51.3598 821.554 55.3384 823.338 58.1325C825.121 60.926 830.024 61.2074 834.288 58.7602C838.553 56.3135 839.979 51.213 838.78 49.2715C837.039 46.4537 830.505 46.8612 827.83 48.6432Z" fill="white" fill-opacity="0.1"/>
<path d="M724.566 15.2912C726.657 13.9396 726.753 10.47 724.615 7.65236C722.986 5.50598 719.075 3.4158 717.094 4.90814C716.011 5.72417 714.983 9.67978 717.046 12.547C719.109 15.4142 722.476 16.6428 724.566 15.2912Z" fill="white" fill-opacity="0.1"/>
<path d="M718.374 20.1837C716.91 18.949 713.052 18.2813 711.811 19.845C710.957 20.9222 711.437 24.0502 713.797 25.784C716.158 27.5178 719.096 27.6691 720.36 26.1226C721.623 24.5766 720.605 22.0658 718.374 20.1837Z" fill="white" fill-opacity="0.1"/>
<path d="M742.533 20.7009C740.666 20.3126 739.034 19.2905 737.876 17.8492C735.826 15.2967 732.355 14.3869 729.246 15.4106C726.137 16.4342 724.008 19.1877 724.068 22.3954C724.102 24.2067 723.488 25.9685 722.277 27.3703C720.983 28.8688 719.523 30.3385 720.456 33.497C721.607 37.3951 726.262 39.3442 730.295 38.0163C731.432 37.6422 732.417 37.0417 733.215 36.2869C734.08 35.4698 735.111 34.8527 736.23 34.4776C737.353 34.1146 738.567 33.9921 739.779 34.1257C740.899 34.2493 742.064 34.1414 743.201 33.7673C747.234 32.4394 749.613 28.1747 747.968 24.4391C746.635 21.4122 744.529 21.116 742.533 20.7009Z" fill="white" fill-opacity="0.1"/>
<path d="M732.891 12.5345C735.415 12.3574 737.24 9.40761 736.97 5.94607C736.699 2.48453 733.295 -0.00151797 731.911 6.95401e-07C729.381 0.0025318 727.696 3.94802 727.832 6.58847C728.013 10.0551 730.369 12.7117 732.891 12.5345Z" fill="white" fill-opacity="0.1"/>
<path d="M743.307 18.5166C745.311 18.9798 747.509 17.1255 748.216 14.3752C748.923 11.6249 747.243 8.89487 745.867 8.55672C743.869 8.06619 741.289 10.8681 740.956 12.6981C740.449 15.4879 741.302 18.0539 743.307 18.5166Z" fill="white" fill-opacity="0.1"/>
<path d="M635.775 43.5411C638.032 41.9314 637.951 38.0578 635.414 35.0194C633.481 32.7055 629.005 30.5657 626.877 32.3269C625.714 33.2902 624.782 37.7515 627.239 40.8486C629.695 43.9451 633.517 45.1509 635.775 43.5411Z" fill="white" fill-opacity="0.1"/>
<path d="M624.323 55.7696C627.049 57.5875 630.334 57.6128 631.66 55.8268C632.985 54.0404 631.711 51.2906 629.122 49.3006C627.423 47.9951 623.082 47.4392 621.785 49.2434C620.89 50.4867 621.595 53.9518 624.323 55.7696Z" fill="white" fill-opacity="0.1"/>
<path d="M633.869 57.1241C632.507 58.8591 630.96 60.5687 632.171 64.0456C633.668 68.3366 638.964 70.2827 643.39 68.6044C644.637 68.1316 645.704 67.4142 646.553 66.5333C647.471 65.5796 648.589 64.8409 649.816 64.3681C651.049 63.9079 652.395 63.7125 653.755 63.8021C655.01 63.8851 656.304 63.7074 657.552 63.2351C661.978 61.5569 664.398 56.6842 662.36 52.5992C660.709 49.2893 658.344 49.0625 656.095 48.6965C653.993 48.3543 652.116 47.2947 650.747 45.7435C648.322 42.9971 644.401 42.1527 640.99 43.4462C637.579 44.7397 635.354 47.9149 635.595 51.4885C635.732 53.5069 635.144 55.5016 633.869 57.1241Z" fill="white" fill-opacity="0.1"/>
<path d="M644.897 40.0609C647.701 39.7399 649.577 36.3607 649.087 32.5132C648.597 28.6661 644.664 26.0594 643.121 26.1288C640.3 26.2554 638.636 30.7382 638.932 33.6765C639.321 37.5337 642.092 40.3819 644.897 40.0609Z" fill="white" fill-opacity="0.1"/>
<path d="M656.844 46.2223C659.106 46.641 661.456 44.4657 662.095 41.3636C662.734 38.262 660.711 35.2991 659.158 34.9898C656.904 34.5408 654.179 37.7912 653.907 39.8485C653.493 42.984 654.583 45.8037 656.844 46.2223Z" fill="white" fill-opacity="0.1"/>
<path d="M695.645 154.156C699.344 150.406 702.071 142.555 698.326 139.54C696.277 137.891 687.941 137.524 682.957 142.331C677.973 147.138 676.773 153.682 680.277 156.947C683.78 160.213 690.789 159.079 695.645 154.156Z" fill="white" fill-opacity="0.1"/>
<path d="M655.14 141.436C652.546 146.353 653.348 151.716 656.932 153.416C660.516 155.115 665.176 152.328 668.118 147.591C670.048 144.482 669.936 137.262 666.326 135.611C663.839 134.474 657.735 136.52 655.14 141.436Z" fill="white" fill-opacity="0.1"/>
<path d="M681.792 165.427C678.564 160.197 672.228 157.389 665.807 158.706C662.18 159.45 658.408 159.005 655.136 157.347C651.637 155.573 648.134 153.492 642.14 156.366C634.741 159.913 632.578 169.054 636.766 175.838C637.945 177.75 639.523 179.303 641.34 180.46C643.308 181.712 644.937 183.344 646.112 185.223C647.265 187.114 647.968 189.26 648.155 191.5C648.329 193.568 648.985 195.633 650.166 197.544C654.354 204.328 663.819 207.017 670.705 202.639C676.284 199.091 676.085 195.177 676.168 191.416C676.246 187.899 677.683 184.564 680.143 181.931C684.501 177.268 685.02 170.656 681.792 165.427Z" fill="white" fill-opacity="0.1"/>
<path d="M698.992 159.551C692.093 161.182 687.643 166.438 688.949 170.928C690.256 175.418 696.872 177.604 703.725 175.811C710.578 174.018 714.292 166.932 713.768 164.435C712.81 159.866 704.247 158.309 698.992 159.551Z" fill="white" fill-opacity="0.1"/>
<path d="M691.659 185.555C685.862 185.69 681.027 188.197 680.853 191.992C680.677 195.787 685.231 199.059 691.024 199.299C696.817 199.54 701.67 195.476 701.831 192.863C702.064 189.07 695.462 185.467 691.659 185.555Z" fill="white" fill-opacity="0.1"/>
<path d="M545.714 153.363C550.33 153.766 554.737 148.972 555.186 142.627C555.529 137.793 552.578 130.514 547.943 130.431C545.408 130.385 539.086 134.834 538.471 141.167C537.856 147.499 541.098 152.959 545.714 153.363Z" fill="white" fill-opacity="0.1"/>
<path d="M526.43 163.997C530.117 163.211 531.768 158.537 530.935 153.411C530.389 150.048 525.76 144.836 522.084 145.672C519.551 146.248 516.378 151.198 517.578 156.258C518.778 161.318 522.741 164.783 526.43 163.997Z" fill="white" fill-opacity="0.1"/>
<path d="M549.275 200.062C556.606 202.649 565.216 199.258 567.49 192.162C569.333 186.413 566.723 183.665 564.415 180.87C562.257 178.257 561.209 175.006 561.348 171.69C561.597 165.817 557.813 160.692 552.162 158.698C546.511 156.704 540.113 158.236 536.251 162.833C534.069 165.429 531.034 167.238 527.599 167.878C523.926 168.562 520.056 169.023 517.485 174.515C514.312 181.294 518.487 189.197 525.818 191.784C527.883 192.513 530.014 192.755 532.07 192.572C534.297 192.374 536.514 192.644 538.556 193.352C540.589 194.082 542.453 195.252 544.001 196.782C545.43 198.195 547.21 199.333 549.275 200.062Z" fill="white" fill-opacity="0.1"/>
<path d="M560.848 158.671C564.63 161.211 570.84 159.065 574.718 153.877C578.598 148.688 576.85 141.41 574.894 139.881C571.317 137.086 564.08 140.793 561.024 144.675C557.01 149.77 557.066 156.129 560.848 158.671Z" fill="white" fill-opacity="0.1"/>
<path d="M568.194 178.642C570.455 181.514 575.843 181.328 580.226 178.225C584.611 175.123 585.598 169.407 584.07 167.407C581.852 164.504 574.761 165.607 572.037 167.824C567.887 171.202 565.933 175.77 568.194 178.642Z" fill="white" fill-opacity="0.1"/>
<path d="M611.43 279.744C615.808 283.054 623.613 280.986 628.508 274.863C632.237 270.198 634.353 260.991 629.732 257.992C627.205 256.352 617.707 256.866 612.654 262.873C607.6 268.879 607.052 276.433 611.43 279.744Z" fill="white" fill-opacity="0.1"/>
<path d="M580.995 264.966C578.665 270.83 580.241 276.822 584.516 278.348C588.79 279.875 593.727 276.195 596.474 270.495C598.276 266.755 597.251 258.581 592.955 257.113C589.994 256.101 583.326 259.102 580.995 264.966Z" fill="white" fill-opacity="0.1"/>
<path d="M614.203 289.188C609.893 283.619 602.361 281.143 595.244 283.354C591.224 284.603 586.893 284.519 582.977 283.004C578.789 281.384 574.56 279.416 568.119 283.343C560.171 288.191 558.855 298.797 564.446 306.021C566.022 308.057 568.003 309.642 570.207 310.751C572.594 311.951 574.644 313.619 576.209 315.619C577.751 317.635 578.815 319.989 579.307 322.507C579.761 324.833 580.761 327.101 582.337 329.136C587.928 336.36 598.994 338.352 606.257 332.619C612.142 327.973 611.43 323.558 611.056 319.284C610.708 315.288 611.924 311.346 614.385 308.086C618.746 302.311 618.513 294.757 614.203 289.188Z" fill="white" fill-opacity="0.1"/>
<path d="M632.969 280.607C625.35 283.226 620.957 289.682 622.996 294.627C625.036 299.572 632.808 301.312 640.356 298.513C647.904 295.715 651.234 287.267 650.329 284.493C648.674 279.42 638.773 278.611 632.969 280.607Z" fill="white" fill-opacity="0.1"/>
<path d="M627.89 310.908C621.334 311.708 616.165 315.091 616.438 319.413C616.711 323.736 622.28 326.936 628.879 326.562C635.477 326.187 640.474 321.038 640.331 318.057C640.123 313.731 632.191 310.383 627.89 310.908Z" fill="white" fill-opacity="0.1"/>
<path d="M550.269 362.188C548.876 362.874 546.823 367.068 548.464 370.687C550.105 374.306 553.573 376.368 556.211 375.294C558.849 374.219 559.752 370.374 558.016 366.795C556.695 364.068 552.817 360.934 550.269 362.188Z" fill="white" fill-opacity="0.1"/>
<path d="M548.181 379.463C546.835 377.786 542.69 376.247 540.95 377.733C539.751 378.757 539.569 382.34 541.801 384.757C544.032 387.175 547.27 387.949 549.032 386.487C550.794 385.025 550.234 382.019 548.181 379.463Z" fill="white" fill-opacity="0.1"/>
<path d="M574.965 385.019C572.974 384.201 571.39 382.727 570.432 380.882C568.734 377.617 565.076 375.888 561.378 376.388C557.681 376.887 554.677 379.515 554.009 383.1C553.632 385.124 552.545 386.96 550.874 388.272C549.089 389.674 547.127 391.01 547.441 394.72C547.829 399.299 552.566 402.429 557.363 401.781C558.715 401.599 559.951 401.133 561.012 400.457C562.162 399.725 563.453 399.25 564.785 399.063C566.119 398.89 567.499 399.004 568.818 399.403C570.037 399.772 571.361 399.891 572.712 399.709C577.509 399.061 581.136 394.801 580.16 390.302C579.369 386.657 577.092 385.893 574.965 385.019Z" fill="white" fill-opacity="0.1"/>
<path d="M566.097 373.937C568.947 374.259 571.657 371.35 572.15 367.438C572.643 363.527 569.421 360.056 567.88 359.772C565.061 359.254 562.279 363.301 561.826 366.271C561.231 370.169 563.246 373.614 566.097 373.937Z" fill="white" fill-opacity="0.1"/>
<path d="M581.472 372.179C579.359 371.222 575.844 373.81 575.053 375.78C573.849 378.783 574.21 381.816 576.336 382.745C578.463 383.674 581.337 382.062 582.754 379.144C584.173 376.227 582.927 372.84 581.472 372.179Z" fill="white" fill-opacity="0.1"/>
<path d="M432.372 416.717C433.036 412.47 428.34 408.136 421.835 407.378C416.881 406.801 409.231 409.137 408.895 413.419C408.712 415.761 412.948 421.848 419.431 422.759C425.915 423.669 431.708 420.965 432.372 416.717Z" fill="white" fill-opacity="0.1"/>
<path d="M431.618 430.388C428.128 430.712 422.515 434.712 423.177 438.156C423.634 440.53 428.556 443.731 433.828 442.894C439.1 442.057 442.878 438.579 442.268 435.126C441.657 431.672 436.938 429.894 431.618 430.388Z" fill="white" fill-opacity="0.1"/>
<path d="M473.472 398.666C467.655 396.652 464.687 398.918 461.687 400.901C458.881 402.755 455.48 403.55 452.075 403.242C446.045 402.697 440.567 405.919 438.211 411.038C435.854 416.158 437.086 422.156 441.608 425.977C444.162 428.135 445.859 431.039 446.333 434.251C446.839 437.685 447.105 441.289 452.618 443.963C459.422 447.263 467.78 443.828 470.837 437.187C471.699 435.316 472.063 433.358 471.985 431.446C471.901 429.376 472.299 427.34 473.138 425.491C473.999 423.649 475.302 421.988 476.961 420.639C478.493 419.393 479.758 417.809 480.62 415.938C483.676 409.298 480.651 401.152 473.472 398.666Z" fill="white" fill-opacity="0.1"/>
<path d="M424.257 402.084C429.283 406.071 435.83 406.361 438.649 403.001C441.467 399.64 439.594 393.781 434.464 389.914C429.334 386.047 421.751 387.271 420.071 388.997C417.002 392.154 420.427 399.048 424.257 402.084Z" fill="white" fill-opacity="0.1"/>
<path d="M459.597 397.283C462.674 395.346 462.772 390.353 459.816 386.131C456.859 381.909 451.032 380.688 448.891 381.993C445.784 383.888 446.537 390.507 448.672 393.145C451.925 397.166 456.519 399.22 459.597 397.283Z" fill="white" fill-opacity="0.1"/>
<path d="M344.14 431.249C347.339 431.136 349.908 427.481 349.621 423.098C349.401 419.758 346.697 415.021 343.516 415.355C341.775 415.537 337.863 419.118 338.035 423.507C338.208 427.896 340.941 431.362 344.14 431.249Z" fill="white" fill-opacity="0.1"/>
<path d="M331.93 440.158C334.383 439.308 335.075 435.968 334.024 432.528C333.334 430.271 329.675 427.091 327.235 427.974C325.556 428.582 323.846 432.239 325.142 435.604C326.439 438.968 329.478 441.007 331.93 440.158Z" fill="white" fill-opacity="0.1"/>
<path d="M359.535 448.512C357.812 446.904 356.788 444.766 356.573 442.483C356.192 438.44 353.119 435.248 349.063 434.359C345.005 433.469 340.767 435.058 338.553 438.533C337.302 440.494 335.393 441.99 333.1 442.717C330.648 443.496 328.042 444.138 326.797 448.116C325.259 453.027 328.859 458.088 334.123 459.242C335.607 459.567 337.089 459.553 338.48 459.254C339.986 458.931 341.53 458.929 342.996 459.242C344.456 459.57 345.843 460.215 347.046 461.132C348.158 461.979 349.483 462.608 350.966 462.933C356.23 464.087 361.809 461.038 362.702 455.986C363.423 451.893 361.377 450.232 359.535 448.512Z" fill="white" fill-opacity="0.1"/>
<path d="M355.007 433.608C357.836 435.03 361.888 433.036 364.058 429.156C366.227 425.275 364.348 420.438 362.865 419.555C360.153 417.942 355.544 421.092 353.814 424.008C351.543 427.836 352.179 432.187 355.007 433.608Z" fill="white" fill-opacity="0.1"/>
<path d="M363.536 438.933C361.009 441.597 360.101 444.89 361.919 446.666C363.737 448.442 367.409 447.86 370.121 445.366C372.832 442.872 372.972 438.874 371.738 437.633C369.947 435.832 365.193 437.186 363.536 438.933Z" fill="white" fill-opacity="0.1"/>
<path d="M265.084 514.749C267.741 514.237 269.357 510.849 268.482 507.223C267.815 504.461 264.869 500.855 262.258 501.548C260.83 501.927 258.079 505.429 258.86 509.074C259.64 512.719 262.427 515.26 265.084 514.749Z" fill="white" fill-opacity="0.1"/>
<path d="M256.175 523.784C258.102 522.755 258.196 519.873 256.818 517.135C255.915 515.338 252.397 513.158 250.486 514.214C249.169 514.941 248.272 518.219 249.843 520.862C251.414 523.505 254.249 524.813 256.175 523.784Z" fill="white" fill-opacity="0.1"/>
<path d="M280.452 527.17C278.78 526.05 277.615 524.397 277.104 522.517C276.199 519.188 273.169 516.921 269.65 516.707C266.13 516.492 262.82 518.372 261.472 521.564C260.712 523.366 259.333 524.864 257.522 525.771C255.586 526.741 253.501 527.617 253.037 531.104C252.464 535.408 256.206 539.168 260.772 539.446C262.058 539.525 263.295 539.32 264.414 538.89C265.626 538.423 266.916 538.22 268.185 538.291C269.455 538.375 270.706 538.733 271.845 539.343C272.897 539.906 274.095 540.259 275.382 540.337C279.948 540.616 284.168 537.341 284.181 533.004C284.191 529.489 282.241 528.367 280.452 527.17Z" fill="white" fill-opacity="0.1"/>
<path d="M274.51 515.305C277.08 516.124 280.178 513.931 281.428 510.405C282.679 506.879 280.407 503.081 279.04 502.537C276.54 501.543 273.144 504.775 272.122 507.437C270.78 510.932 271.941 514.485 274.51 515.305Z" fill="white" fill-opacity="0.1"/>
<path d="M282.412 518.645C280.687 521.2 280.404 524.07 282.181 525.318C283.957 526.566 286.942 525.601 288.847 523.163C290.752 520.725 290.289 517.366 289.078 516.49C287.319 515.218 283.543 516.968 282.412 518.645Z" fill="white" fill-opacity="0.1"/>
<path d="M210.696 423.503C213.98 420.275 216.471 413.452 213.242 410.772C211.476 409.306 204.201 408.88 199.781 413.016C195.359 417.151 194.219 422.852 197.233 425.748C200.248 428.643 206.385 427.742 210.696 423.503Z" fill="white" fill-opacity="0.1"/>
<path d="M176.88 422.369C179.986 423.898 184.096 421.523 186.731 417.422C188.461 414.732 188.463 408.424 185.335 406.937C183.178 405.912 177.818 407.622 175.483 411.883C173.148 416.145 173.773 420.839 176.88 422.369Z" fill="white" fill-opacity="0.1"/>
<path d="M198.443 433.172C195.697 428.564 190.203 426.031 184.575 427.1C181.397 427.704 178.11 427.268 175.275 425.779C172.244 424.185 169.215 422.324 163.938 424.758C157.426 427.763 155.409 435.72 158.972 441.698C159.975 443.382 161.331 444.758 162.902 445.792C164.604 446.911 166.003 448.356 167.002 450.012C167.983 451.679 168.567 453.561 168.7 455.52C168.823 457.329 169.366 459.141 170.371 460.825C173.933 466.803 182.163 469.271 188.238 465.534C193.161 462.505 193.042 459.084 193.166 455.801C193.283 452.73 194.586 449.835 196.772 447.566C200.643 443.548 201.19 437.78 198.443 433.172Z" fill="white" fill-opacity="0.1"/>
<path d="M213.545 428.258C207.496 429.596 203.535 434.13 204.614 438.068C205.693 442.005 211.44 443.999 217.45 442.519C223.461 441.039 226.804 434.898 226.381 432.709C225.609 428.707 218.151 427.239 213.545 428.258Z" fill="white" fill-opacity="0.1"/>
<path d="M206.773 450.877C201.708 450.921 197.451 453.049 197.244 456.362C197.038 459.674 200.97 462.589 206.027 462.872C211.083 463.155 215.378 459.667 215.555 457.387C215.812 454.077 210.096 450.847 206.773 450.877Z" fill="white" fill-opacity="0.1"/>
<path d="M117.206 432.514C119.688 434.147 123.809 432.769 126.213 429.308C128.043 426.671 128.834 421.644 126.234 420.186C124.812 419.39 119.719 419.989 117.227 423.393C114.734 426.797 114.725 430.881 117.206 432.514Z" fill="white" fill-opacity="0.1"/>
<path d="M102.663 432.676C105.021 433.352 107.54 431.204 108.803 428.044C109.632 425.97 108.771 421.605 106.403 420.962C104.771 420.518 101.296 422.359 100.264 425.594C99.2309 428.829 100.305 432 102.663 432.676Z" fill="white" fill-opacity="0.1"/>
<path d="M108.629 435.007C106.513 435.815 104.179 435.918 102.014 435.235C99.6989 434.506 97.3488 433.589 94.0306 435.922C89.936 438.801 89.6285 444.554 92.9109 448.252C93.8357 449.294 94.9619 450.08 96.1895 450.602C97.5197 451.167 98.6854 451.995 99.6038 453.017C100.509 454.05 101.171 455.281 101.531 456.619C101.863 457.856 102.487 459.042 103.412 460.084C106.694 463.782 112.725 464.478 116.417 461.146C119.409 458.446 118.859 456.094 118.496 453.807C118.158 451.668 118.663 449.505 119.865 447.666C121.994 444.411 121.583 440.353 119.053 437.502C116.523 434.653 112.376 433.575 108.629 435.007Z" fill="white" fill-opacity="0.1"/>
<path d="M128.829 432.248C124.828 433.916 122.706 437.54 123.991 440.131C125.276 442.723 129.524 443.396 133.481 441.633C137.437 439.871 138.91 435.211 138.318 433.749C137.236 431.076 131.876 430.976 128.829 432.248Z" fill="white" fill-opacity="0.1"/>
<path d="M127.245 448.728C123.747 449.381 121.092 451.377 121.403 453.693C121.712 456.01 124.831 457.543 128.368 457.118C131.905 456.692 134.4 453.752 134.21 452.153C133.936 449.831 129.54 448.299 127.245 448.728Z" fill="white" fill-opacity="0.1"/>
<path d="M-8.73604 469.674C-5.29611 471.543 -1.40283 471.232 -0.0406313 468.978C1.32156 466.725 -0.314561 463.302 -3.80202 461.514C-6.45806 460.152 -11.3109 459.868 -12.4964 462.21C-13.1446 463.49 -12.1749 467.805 -8.73604 469.674Z" fill="white" fill-opacity="0.1"/>
<path d="M-3.65187 476.523C-5.69383 475.975 -9.78629 477.053 -10.2151 479.132C-10.5109 480.565 -8.4839 483.398 -5.31951 484.029C-2.15511 484.661 0.782875 483.493 1.2437 481.42C1.70347 479.347 -0.54034 477.358 -3.65187 476.523Z" fill="white" fill-opacity="0.1"/>
<path d="M20.1518 466.204C18.1403 466.662 16.0391 466.398 14.1931 465.512C10.9235 463.943 7.0879 464.613 4.56909 467.003C2.05028 469.393 1.3481 473.03 3.00505 476.128C3.9406 477.877 4.22094 479.869 3.74035 481.777C3.22559 483.817 2.53728 485.902 5.01924 488.562C8.08378 491.845 13.5902 491.659 16.8588 488.557C17.7788 487.683 18.4399 486.657 18.8409 485.564C19.2756 484.381 19.9735 483.317 20.877 482.451C21.7901 481.594 22.9115 480.931 24.1594 480.518C25.3112 480.137 26.3936 479.509 27.3147 478.636C30.5827 475.535 30.7739 470.314 27.3094 467.411C24.5028 465.06 22.3038 465.715 20.1518 466.204Z" fill="white" fill-opacity="0.1"/>
<path d="M-0.517556 450.793C-2.98136 451.929 -2.65723 456.528 -1.20693 459.039C0.696726 462.336 4.31608 463.869 6.68537 462.566C9.05573 461.263 9.36437 457.571 7.37474 454.32C5.38618 451.069 0.829688 450.172 -0.517556 450.793Z" fill="white" fill-opacity="0.1"/>
<path d="M17.3482 452.878C15.1573 453.295 14.0402 457.18 14.6281 459.112C15.5247 462.057 17.635 464.175 19.8184 463.728C22.0019 463.281 23.2199 460.49 22.5375 457.494C21.8561 454.497 18.8573 452.591 17.3482 452.878Z" fill="white" fill-opacity="0.1"/>
<path d="M-2.30512 339.835C-0.430832 340.582 1.64584 340.951 3.81275 340.844C11.5037 340.466 17.8843 334.211 17.015 326.957C16.3107 321.08 12.8195 319.564 9.58299 317.893C6.55529 316.331 4.2677 313.783 3.02725 310.734C0.829903 305.336 -4.70111 302.107 -10.6299 302.399C-16.5582 302.69 -21.7069 306.445 -23.303 312.03C-24.2038 315.184 -26.202 317.944 -29.0418 319.794C-32.0791 321.774 -35.385 323.624 -35.4448 329.539C-35.5169 336.84 -28.4869 342.434 -20.796 342.056C-18.6285 341.949 -16.6036 341.379 -14.8207 340.452C-12.8903 339.448 -10.7757 338.87 -8.63925 338.754C-6.50171 338.659 -4.33426 339.026 -2.30512 339.835Z" fill="white" fill-opacity="0.1"/>
<path d="M-2.7958 299.154C1.66885 300.049 6.39568 295.808 7.76215 289.683C9.12808 283.558 4.54916 277.628 2.15157 276.972C-2.23245 275.771 -7.24337 281.802 -8.40639 286.442C-9.93305 292.533 -7.26045 298.259 -2.7958 299.154Z" fill="white" fill-opacity="0.1"/>
<path d="M12.0827 314.478C15.3101 316.236 20.1005 314.071 22.7832 309.643C25.466 305.215 24.0018 299.685 21.797 298.444C18.5963 296.643 12.6429 300.267 11.0954 303.278C8.73783 307.87 8.85531 312.721 12.0827 314.478Z" fill="white" fill-opacity="0.1"/>
</svg>
